<svg width="20" height="20" viewBox="0 0 20 20" fill="none" xmlns="http://www.w3.org/2000/svg">
<g clip-path="url(#clip0_501_101)">
<path d="M15.6978 2.46793L15.686 2.45559C14.1758 0.87207 12.1574 0 10.0025 0C7.84441 0 5.8221 0.874258 4.30816 2.46176C1.19222 5.72898 1.1896 11.0424 4.30226 14.3062L9.54773 19.8064C9.66569 19.9301 9.82913 20 10 20C10.1709 20 10.3344 19.9301 10.4523 19.8064L15.6919 14.3124C18.8078 11.0452 18.8105 5.73176 15.6978 2.46793ZM14.7873 13.4497L10 18.4694L5.20683 13.4435C2.5478 10.6554 2.55046 6.11598 5.21273 3.32441C6.48851 1.98672 8.18956 1.25 10.0025 1.25C11.8123 1.25 13.5094 1.98453 14.7814 3.31824L14.7932 3.33059C17.4523 6.11875 17.4496 10.6582 14.7873 13.4497ZM10 4.36609C7.78152 4.36609 5.97659 6.17102 5.97659 8.38953C5.97659 10.608 7.78152 12.413 10 12.413C12.2185 12.413 14.0235 10.608 14.0235 8.38953C14.0235 6.17102 12.2186 4.36609 10 4.36609ZM10 11.163C8.47073 11.163 7.22659 9.91879 7.22659 8.38953C7.22659 6.86027 8.47077 5.61609 10 5.61609C11.5293 5.61609 12.7735 6.86027 12.7735 8.38953C12.7735 9.91883 11.5293 11.163 10 11.163Z" fill="#ED145B"/>
</g>
<defs>
<clipPath id="clip0_501_101">
<rect width="20" height="20" fill="white"/>
</clipPath>
</defs>
</svg>
