<svg width="88" height="68" viewBox="0 0 88 68" fill="none" xmlns="http://www.w3.org/2000/svg">
<g clip-path="url(#clip0_501_45)">
<path fill-rule="evenodd" clip-rule="evenodd" d="M45.3705 25.0108C45.3705 22.836 45.1541 20.8786 44.8656 19.5737H42.9901C42.7016 20.8786 42.4852 22.836 42.4852 25.0108C42.4852 27.2582 42.7016 29.2155 42.9901 30.5929H44.7934C45.2262 29.288 45.3705 27.2582 45.3705 25.0108Z" fill="#ED1C24"/>
<path fill-rule="evenodd" clip-rule="evenodd" d="M49.4819 8.84435C48.5442 5.94456 46.7409 3.55224 44.9376 1.23241C44.7212 0.869936 44.3606 0.507463 43.9999 0C43.5671 0.507463 43.2786 0.869936 42.9901 1.23241C41.1868 3.62473 39.4557 6.01706 38.4458 8.84435C37.2917 12.3241 38.4458 14.5714 41.9803 15.5864C43.7114 16.0938 43.7114 16.0938 43.7114 17.9062C43.7114 17.9062 43.7114 17.9062 43.7114 17.9787C43.495 18.1962 43.3507 18.6311 43.1344 19.2111H44.7934C44.6491 18.6311 44.4327 18.1962 44.2885 17.9787C44.2885 17.9787 44.2885 17.9787 44.2885 17.9062C44.2885 16.0938 44.2884 16.0938 46.0196 15.5864C49.4819 14.6439 50.7081 12.3241 49.4819 8.84435Z" fill="#ED1C24"/>
<path fill-rule="evenodd" clip-rule="evenodd" d="M43.2065 31.0278C43.4229 31.8253 43.7115 32.2602 44 32.2602C44.2885 32.2602 44.577 31.8253 44.7934 31.0278H43.2065Z" fill="#ED1C24"/>
<path fill-rule="evenodd" clip-rule="evenodd" d="M33.4688 23.7056C33.4688 21.8207 33.3246 20.2258 33.036 19.0659H31.4491C31.1606 20.1533 31.0164 21.8207 31.0164 23.7056C31.0164 25.5904 31.1606 27.3303 31.4491 28.4177H32.9639C33.3246 27.3303 33.4688 25.5904 33.4688 23.7056Z" fill="#F04E37"/>
<path fill-rule="evenodd" clip-rule="evenodd" d="M37.0033 9.93153C36.2099 7.46672 34.6951 5.43687 33.1803 3.40701C32.964 3.11704 32.6754 2.75456 32.3148 2.39209C31.9541 2.82706 31.7377 3.11704 31.4492 3.40701C29.9344 5.43687 28.4197 7.46672 27.6262 9.93153C26.6164 12.9038 27.6262 14.8612 30.6558 15.6586C32.0984 16.0936 32.0984 16.0936 32.0984 17.616C31.9541 17.761 31.7377 18.1234 31.6656 18.6309H33.0361C32.8918 18.1234 32.7476 17.761 32.6033 17.616C32.6033 16.0936 32.6033 16.0936 34.0459 15.6586C37.0033 14.8612 38.0131 12.9038 37.0033 9.93153Z" fill="#F04E37"/>
<path fill-rule="evenodd" clip-rule="evenodd" d="M31.5935 28.7803C31.8099 29.4327 32.0263 29.7952 32.2427 29.7952C32.4591 29.7952 32.7476 29.4327 32.8919 28.7803H31.5935Z" fill="#F04E37"/>
<path fill-rule="evenodd" clip-rule="evenodd" d="M23.2262 22.6181C23.2262 21.0232 23.0819 19.5733 22.8655 18.6309H21.4951C21.2787 19.5733 21.1344 21.0232 21.1344 22.6181C21.1344 24.2854 21.2787 25.7353 21.4951 26.6778H22.7934C23.0819 25.7353 23.2262 24.2854 23.2262 22.6181Z" fill="#F7941D"/>
<path fill-rule="evenodd" clip-rule="evenodd" d="M26.2557 10.8016C25.5344 8.69929 24.236 6.95942 22.9377 5.21955C22.7213 4.92957 22.5049 4.71208 22.2164 4.34961C21.9278 4.71208 21.7114 5.00206 21.495 5.21955C20.1967 6.95942 18.8983 8.69929 18.177 10.8016C17.3114 13.3389 18.177 15.0063 20.7737 15.7313C22.0721 16.0937 22.0721 16.0937 22 17.3986C21.8557 17.5436 21.7114 17.8336 21.6393 18.2686H22.8655C22.7213 17.8336 22.6491 17.5436 22.4327 17.3986C22.4327 16.0937 22.4327 16.0937 23.659 15.7313C26.2557 15.0063 27.1213 13.3389 26.2557 10.8016Z" fill="#F7941D"/>
<path fill-rule="evenodd" clip-rule="evenodd" d="M21.6393 27.0405C21.7835 27.6205 21.9999 27.9105 22.2163 27.9105C22.4327 27.9105 22.6491 27.548 22.7934 27.0405H21.6393Z" fill="#F7941D"/>
<path fill-rule="evenodd" clip-rule="evenodd" d="M66.7935 22.6181C66.7935 21.0232 66.6492 19.5733 66.4328 18.6309H65.0623C64.8459 19.5733 64.7017 21.0232 64.7017 22.6181C64.7017 24.2854 64.8459 25.7353 65.0623 26.6778H66.3607C66.6492 25.7353 66.7935 24.2854 66.7935 22.6181Z" fill="#92278F"/>
<path fill-rule="evenodd" clip-rule="evenodd" d="M69.823 10.8016C69.1016 8.69929 67.8033 6.95942 66.5049 5.21955C66.2885 4.92957 66.0721 4.71208 65.7836 4.34961C65.4951 4.71208 65.2787 5.00206 65.0623 5.21955C63.7639 6.95942 62.4656 8.69929 61.7443 10.8016C60.8787 13.3389 61.7443 15.0063 64.341 15.7313C65.6393 16.0937 65.6394 16.0937 65.5672 17.3986C65.423 17.5436 65.2787 17.8336 65.2066 18.2686H66.3607C66.2164 17.8336 66.1443 17.5436 66 17.3986C66 16.0937 66 16.0937 67.2262 15.7313C69.823 15.0063 70.6885 13.3389 69.823 10.8016Z" fill="#92278F"/>
<path fill-rule="evenodd" clip-rule="evenodd" d="M65.2065 27.0405C65.3508 27.6205 65.5672 27.9105 65.7836 27.9105C66 27.9105 66.2164 27.548 66.3606 27.0405H65.2065Z" fill="#92278F"/>
<path fill-rule="evenodd" clip-rule="evenodd" d="M75.4492 21.6758C75.4492 20.2984 75.3049 19.066 75.1606 18.2686H74.0065C73.7901 19.066 73.718 20.2984 73.718 21.6758C73.718 23.0532 73.8623 24.3581 74.0065 25.1555H75.1606C75.3049 24.3581 75.4492 23.1257 75.4492 21.6758Z" fill="#005BAA"/>
<path fill-rule="evenodd" clip-rule="evenodd" d="M78.0459 11.5992C77.4688 9.78681 76.3147 8.26442 75.2328 6.81453C75.0885 6.59705 74.8721 6.37956 74.5836 6.01709C74.2951 6.30707 74.1508 6.52455 73.9344 6.81453C72.7803 8.26442 71.6984 9.78681 71.1213 11.5992C70.4 13.774 71.1213 15.2239 73.3574 15.8039C74.4393 16.0938 74.4393 16.0938 74.4393 17.2538C74.2951 17.3988 74.2229 17.6162 74.0787 17.9787H75.0885C75.0164 17.6162 74.8721 17.3263 74.7279 17.2538C74.7279 16.0938 74.7279 16.0938 75.8098 15.8039C77.9738 15.1514 78.7672 13.774 78.0459 11.5992Z" fill="#005BAA"/>
<path fill-rule="evenodd" clip-rule="evenodd" d="M74.0787 25.4458C74.223 25.9533 74.3673 26.2432 74.5837 26.2432C74.8001 26.2432 74.9443 25.9533 75.0886 25.4458H74.0787Z" fill="#005BAA"/>
<path fill-rule="evenodd" clip-rule="evenodd" d="M14.3541 21.6758C14.3541 20.2984 14.2098 19.066 14.0655 18.2686H12.9114C12.6951 19.066 12.6229 20.2984 12.6229 21.6758C12.6229 23.0532 12.7672 24.3581 12.9114 25.1555H14.0655C14.2098 24.3581 14.3541 23.1257 14.3541 21.6758Z" fill="#8DC63F"/>
<path fill-rule="evenodd" clip-rule="evenodd" d="M16.8787 11.5992C16.3016 9.78681 15.1475 8.26442 14.0656 6.81453C13.8492 6.52455 13.7049 6.30707 13.4164 6.01709C13.2 6.30707 12.9836 6.52455 12.8393 6.81453C11.6852 8.26442 10.6033 9.78681 10.0262 11.5992C9.3049 13.774 10.0262 15.2239 12.2623 15.8039C13.3442 16.0938 13.3442 16.0938 13.3442 17.2538C13.2 17.3988 13.1279 17.6162 12.9836 17.9787H13.9934C13.9213 17.6162 13.777 17.3263 13.6328 17.2538C13.6328 16.0938 13.6328 16.0938 14.7147 15.8039C16.8787 15.1514 17.6 13.774 16.8787 11.5992Z" fill="#8DC63F"/>
<path fill-rule="evenodd" clip-rule="evenodd" d="M12.9115 25.4458C13.0558 25.9533 13.2 26.2432 13.4164 26.2432C13.6328 26.2432 13.7771 25.9533 13.9213 25.4458H12.9115Z" fill="#8DC63F"/>
<path fill-rule="evenodd" clip-rule="evenodd" d="M56.9114 23.7056C56.9114 21.8207 56.7672 20.2258 56.4787 19.0659H54.8918C54.6032 20.1533 54.459 21.8207 54.459 23.7056C54.459 25.5904 54.6032 27.3303 54.8918 28.4177H56.4065C56.695 27.3303 56.9114 25.5904 56.9114 23.7056Z" fill="#ED145B"/>
<path fill-rule="evenodd" clip-rule="evenodd" d="M60.3738 9.93153C59.5803 7.46672 58.0656 5.43687 56.5508 3.40701C56.3344 3.11704 56.0459 2.75456 55.6853 2.39209C55.3246 2.82706 55.1082 3.11704 54.8197 3.40701C53.3049 5.43687 51.7902 7.46672 50.9967 9.93153C49.9869 12.9038 50.9967 14.8612 54.0262 15.6586C55.4689 16.0936 55.4689 16.0936 55.4689 17.616C55.3246 17.761 55.1803 18.1234 55.0361 18.6309H56.4066C56.2623 18.1234 56.118 17.761 55.9738 17.616C55.9738 16.0936 55.9738 16.0936 57.4164 15.6586C60.3738 14.8612 61.3836 12.9038 60.3738 9.93153Z" fill="#ED145B"/>
<path fill-rule="evenodd" clip-rule="evenodd" d="M55.0361 28.7803C55.2525 29.4327 55.4689 29.7952 55.6853 29.7952C55.9017 29.7952 56.1902 29.4327 56.3345 28.7803H55.0361Z" fill="#ED145B"/>
<path d="M37.8689 55.748H36.7869C36.5705 55.748 36.4262 55.893 36.282 56.1105L34.5508 59.7353C34.4787 59.8802 34.4787 59.8802 34.4066 59.8802C34.3344 59.8802 34.3344 59.8077 34.2623 59.7353L32.5312 56.1105C32.459 55.893 32.2426 55.748 32.0262 55.748H31.0164C30.8721 55.748 30.8 55.8205 30.7279 55.893C30.6557 55.9655 30.5836 56.1105 30.5836 56.183V65.0274C30.5836 65.0999 30.5836 65.1724 30.6557 65.1724C30.7279 65.1724 30.7279 65.2448 30.8 65.2448H32.3148C32.3869 65.2448 32.3869 65.2448 32.459 65.1724C32.459 65.0999 32.5312 65.0274 32.5312 65.0274V59.7353C32.5312 59.6628 32.5312 59.6628 32.6033 59.6628C32.6033 59.6628 32.6754 59.6628 32.6754 59.7353L33.6853 61.8376C33.7574 61.9826 33.9017 62.0551 34.0459 62.0551H34.9836C35.1279 62.0551 35.2721 61.9826 35.3443 61.8376L36.3541 59.7353C36.3541 59.6628 36.4262 59.6628 36.4262 59.6628C36.4984 59.6628 36.4984 59.6628 36.4984 59.7353V65.0274C36.4984 65.0999 36.4984 65.1724 36.5705 65.1724C36.5705 65.2448 36.6426 65.2448 36.7148 65.2448H38.2295C38.3016 65.2448 38.3017 65.2448 38.3738 65.1724C38.4459 65.1724 38.4459 65.0999 38.4459 65.0274V56.183C38.4459 56.038 38.3738 55.9655 38.3016 55.893C38.0853 55.748 38.0131 55.748 37.8689 55.748Z" fill="black"/>
<path d="M45.4426 56.5455C45.1541 56.183 44.7934 55.9655 44.3606 55.8205C43.9279 55.6755 43.4951 55.603 43.0623 55.603C42.5574 55.603 42.1246 55.6755 41.7639 55.8205C41.3311 55.9655 40.9705 56.183 40.682 56.5455C40.3934 56.9079 40.1049 57.2704 39.9606 57.7779C39.8164 58.2853 39.6721 58.9378 39.6721 59.6627V61.1851C39.6721 61.9101 39.7443 62.5625 39.9606 63.07C40.1049 63.5774 40.3934 64.0124 40.682 64.3024C40.9705 64.6649 41.3311 64.8823 41.7639 65.0273C42.1967 65.1723 42.6295 65.2448 43.0623 65.2448C43.5672 65.2448 44 65.1723 44.3606 65.0273C44.7934 64.8823 45.1541 64.6649 45.4426 64.3024C45.7311 63.9399 46.0197 63.5774 46.1639 63.07C46.3082 62.5625 46.4524 61.9101 46.4524 61.1851V59.6627C46.4524 58.9378 46.3803 58.2853 46.1639 57.7779C46.0197 57.3429 45.7311 56.9079 45.4426 56.5455ZM44.5049 61.2576C44.5049 62.0551 44.3606 62.5625 44.1443 62.925C43.9279 63.2875 43.5672 63.4325 43.0623 63.4325C42.5574 63.4325 42.1967 63.2875 41.9803 62.925C41.7639 62.5625 41.6197 62.0551 41.6197 61.2576V59.7352C41.6197 58.9378 41.7639 58.4303 41.9803 58.0678C42.1967 57.7054 42.5574 57.5604 43.0623 57.5604C43.5672 57.5604 43.9279 57.7054 44.1443 58.0678C44.3606 58.4303 44.5049 58.9378 44.5049 59.7352V61.2576Z" fill="black"/>
<path d="M54.3148 55.748H52.8C52.7279 55.748 52.6558 55.748 52.6558 55.8205C52.6558 55.893 52.6558 55.893 52.6558 55.9655V59.3728H49.7705V55.9655C49.7705 55.893 49.7705 55.8205 49.6984 55.8205C49.6263 55.748 49.6263 55.748 49.5541 55.748H48.0394C47.9673 55.748 47.8951 55.748 47.8951 55.8205C47.823 55.893 47.823 55.893 47.823 55.9655V64.9549C47.823 65.0274 47.823 65.0999 47.8951 65.0999C47.9673 65.1724 47.9673 65.1724 48.0394 65.1724H49.5541C49.6263 65.1724 49.6984 65.1724 49.6984 65.0999C49.7705 65.0274 49.7705 64.9549 49.7705 64.9549V61.2576H52.6558V64.9549C52.6558 65.0274 52.6558 65.0999 52.7279 65.0999C52.8 65.1724 52.8 65.1724 52.8722 65.1724H54.3869C54.4591 65.1724 54.5312 65.1724 54.5312 65.0999C54.6033 65.0274 54.6033 64.9549 54.6033 64.9549V55.9655C54.6033 55.893 54.6033 55.8205 54.5312 55.8205C54.4591 55.748 54.3869 55.748 54.3148 55.748Z" fill="black"/>
<path d="M61.5279 55.748H55.9017C55.8296 55.748 55.7574 55.748 55.7574 55.8205C55.6853 55.893 55.6853 55.893 55.6853 55.9655V57.2704C55.6853 57.3429 55.6853 57.4154 55.7574 57.4154C55.8296 57.4879 55.8296 57.4879 55.9017 57.4879H57.7771V64.8824C57.7771 64.9549 57.7771 65.0274 57.8492 65.0274C57.9214 65.0999 57.9214 65.0999 57.9935 65.0999H59.5083C59.5804 65.0999 59.6525 65.0999 59.6525 65.0274C59.7246 64.9549 59.7247 64.8824 59.7247 64.8824V57.5604H61.6001C61.6722 57.5604 61.7443 57.5604 61.7443 57.4879C61.8165 57.4154 61.8165 57.4154 61.8165 57.3429V56.038C61.8165 55.9655 61.8165 55.893 61.7443 55.893C61.6722 55.748 61.6001 55.748 61.5279 55.748Z" fill="black"/>
<path d="M68.0918 59.9527C67.8032 59.7352 67.3705 59.5903 66.9377 59.5178C66.5049 59.4453 66.0721 59.3728 65.5672 59.3728C65.4229 59.3728 65.2786 59.3728 65.2065 59.3728C65.0623 59.3728 64.918 59.3728 64.8459 59.3728V55.9655C64.8459 55.893 64.8459 55.8205 64.7737 55.8205C64.7016 55.748 64.7016 55.748 64.6295 55.748H63.1147C63.0426 55.748 62.9705 55.748 62.9705 55.8205C62.8983 55.893 62.8983 55.9655 62.8983 55.9655V64.3024C62.8983 64.5924 62.9704 64.8099 63.0426 64.8824C63.1147 65.0274 63.3311 65.0999 63.5475 65.0999C63.6918 65.0999 63.7639 65.1724 63.9803 65.1724C64.1245 65.1724 64.3409 65.1724 64.4852 65.2448C64.7016 65.2448 64.8459 65.2448 65.0622 65.2448C65.2786 65.2448 65.4229 65.2448 65.6393 65.2448C66.1442 65.2448 66.577 65.1724 67.0098 65.0999C67.4426 65.0274 67.8032 64.8824 68.1639 64.6649C68.4524 64.4474 68.7409 64.1574 68.9573 63.7225C69.1737 63.36 69.2459 62.8525 69.2459 62.2726V62.2001C69.2459 61.6201 69.1737 61.1127 68.9573 60.7502C68.6688 60.4602 68.4524 60.1702 68.0918 59.9527ZM67.2983 62.3451C67.2983 62.5625 67.2983 62.7075 67.2262 62.8525C67.1541 62.9975 67.0819 63.1425 66.9377 63.215C66.7934 63.2875 66.6491 63.36 66.3606 63.4325C66.1442 63.505 65.8557 63.505 65.495 63.505C65.3508 63.505 65.2786 63.505 65.2065 63.505C65.1344 63.505 65.0622 63.505 65.0622 63.505C64.9901 63.505 64.9901 63.505 64.918 63.505C64.918 63.505 64.8459 63.505 64.7737 63.505V61.1851C64.8459 61.1851 64.8459 61.1851 64.918 61.1851C64.918 61.1851 64.9901 61.1851 65.0622 61.1851C65.1344 61.1851 65.1344 61.1851 65.2065 61.1851C65.2786 61.1851 65.3508 61.1851 65.495 61.1851C65.8557 61.1851 66.1442 61.1851 66.3606 61.2576C66.577 61.3301 66.7934 61.3301 66.9377 61.4751C67.0819 61.5476 67.1541 61.6926 67.2262 61.8376C67.2983 61.9826 67.2983 62.1276 67.2983 62.3451Z" fill="black"/>
<path d="M71.6983 55.748H70.1836C70.0393 55.748 69.9672 55.8205 69.9672 55.9655V64.9549C69.9672 65.0274 69.9672 65.0999 70.0393 65.0999C70.1114 65.1724 70.1114 65.1724 70.1836 65.1724H71.6983C71.7704 65.1724 71.8426 65.1724 71.8426 65.0999C71.9147 65.0274 71.9147 64.9549 71.9147 64.9549V55.9655C71.9147 55.8205 71.8426 55.748 71.6983 55.748Z" fill="black"/>
<path d="M26.6164 55.603C24.4525 55.603 23.6591 56.7629 23.6591 60.4602C23.6591 64.1574 24.4525 65.3173 26.7607 65.3173C27.482 65.3173 28.2755 65.2448 28.9968 65.0273C29.0689 65.0273 29.0689 64.8823 29.0689 64.8099L28.8525 63.2875C28.8525 63.215 28.7804 63.1425 28.7082 63.215C28.2033 63.4325 27.482 63.5774 26.7607 63.5774C25.6066 63.5774 25.4623 63.1425 25.4623 60.9676H29.2132C29.2853 60.9676 29.3574 60.8951 29.3574 60.7502C29.3574 56.5455 28.7082 55.603 26.6164 55.603ZM25.4623 59.3003C25.5345 57.6329 25.6066 57.2704 26.5443 57.2704C27.482 57.2704 27.5541 57.5604 27.6263 59.3003H25.4623Z" fill="black"/>
<path d="M19.1868 55.603C18.6819 55.603 18.177 55.6755 17.6721 55.748C17.1672 55.8205 16.7344 55.893 16.3737 56.038C16.1573 56.1105 16.0852 56.183 16.0852 56.183C16.0852 56.2555 16.0131 56.328 16.0131 56.4005V67.7821C16.0131 67.8546 16.0131 67.9271 16.0852 67.9271C16.1573 67.9996 16.1573 67.9996 16.2295 67.9996H17.8163C17.8163 67.9996 17.8885 67.9996 17.8885 67.9271C17.9606 67.8546 17.9606 67.8546 17.9606 67.7821V64.8099H18.1049C18.3213 64.8099 18.4655 64.8823 18.6819 64.8823C18.8983 64.8823 19.0426 64.8823 19.1868 64.8823C20.2688 64.8823 21.0622 64.5199 21.6393 63.7949C22.1442 63.07 22.4327 62.0551 22.4327 60.8226V59.5177C22.4327 58.2128 22.1442 57.1979 21.5672 56.5455C21.0622 55.893 20.2688 55.603 19.1868 55.603ZM20.4852 60.8951C20.4852 61.1851 20.4852 61.4751 20.4131 61.6926C20.3409 61.9101 20.3409 62.2 20.1967 62.345C20.1245 62.5625 19.9803 62.7075 19.836 62.78C19.6917 62.925 19.4754 62.925 19.1868 62.925C19.0426 62.925 18.8262 62.925 18.6098 62.925C18.3934 62.925 18.2491 62.8525 18.0327 62.8525H17.9606V57.6329H18.0327C18.177 57.6329 18.3213 57.5604 18.5377 57.5604C18.754 57.5604 18.9704 57.5604 19.1868 57.5604C19.4754 57.5604 19.6917 57.6329 19.836 57.7054C19.9803 57.7779 20.1245 57.9954 20.1967 58.1403C20.2688 58.3578 20.3409 58.5753 20.4131 58.7928C20.4131 59.0103 20.4852 59.3003 20.4852 59.5902V60.8951Z" fill="black"/>
<path d="M7.42951 44.4391L11.1082 37.4071C11.1082 37.3346 11.1803 37.3346 11.1803 37.2621C11.1803 37.1897 11.1803 37.1172 11.1082 37.1172C11.0361 37.0447 10.9639 37.0447 10.8918 37.0447H8.22295C8.15082 37.0447 8.00656 37.1172 7.93443 37.1897C7.8623 37.2621 7.79016 37.3346 7.71803 37.4796L5.77049 41.3943L3.60656 37.4071C3.53443 37.3346 3.4623 37.2621 3.39016 37.1172C3.31803 37.0447 3.2459 36.9722 3.17377 36.9722H0.288525C0.216393 36.9722 0.144262 36.9722 0.0721311 37.0447C0 37.1897 0 37.1897 0 37.2621C0 37.2621 0 37.3346 0 37.4071L3.82295 44.2216L0.0721311 51.3986C0.0721311 51.4711 0.0721311 51.4711 0.0721311 51.5436C0.0721311 51.6886 0.144262 51.8336 0.360656 51.8336H3.02951C3.10164 51.8336 3.17377 51.8336 3.2459 51.6886C3.31803 51.6161 3.39016 51.5436 3.4623 51.3986L5.5541 47.2664L7.8623 51.4711C7.93443 51.5436 8.00656 51.6886 8.07869 51.6886C8.15082 51.7611 8.22295 51.7611 8.36721 51.7611H11.1803C11.3246 51.7611 11.3967 51.6886 11.3967 51.5436C11.3967 51.4711 11.3967 51.3986 11.3246 51.3261L7.42951 44.4391Z" fill="black"/>
<path d="M20.918 38.277C20.4131 37.7696 19.9082 37.4071 19.259 37.1896C18.6098 36.9721 17.9606 36.8271 17.1672 36.8271C16.4459 36.8271 15.7246 36.9721 15.0754 37.1896C14.4262 37.4071 13.8491 37.7696 13.4164 38.277C12.9114 38.7845 12.5508 39.437 12.2623 40.2344C11.9737 41.0318 11.8295 42.0468 11.8295 43.2067V45.599C11.8295 46.7589 11.9737 47.7014 12.2623 48.5713C12.5508 49.3687 12.9114 50.0212 13.4164 50.5286C13.9213 51.0361 14.4262 51.3986 15.0754 51.6161C15.7246 51.8335 16.3737 51.9785 17.1672 51.9785C17.8885 51.9785 18.6098 51.8335 19.259 51.6161C19.9082 51.3986 20.4852 51.0361 20.918 50.5286C21.4229 50.0212 21.7836 49.3687 22.0721 48.5713C22.3606 47.7738 22.5049 46.7589 22.5049 45.599V43.2067C22.5049 42.0468 22.3606 41.1043 22.0721 40.2344C21.7114 39.5095 21.3508 38.7845 20.918 38.277ZM19.4032 45.599C19.4032 46.8314 19.1868 47.7014 18.8262 48.2088C18.4655 48.7163 17.8885 49.0063 17.1672 49.0063C16.4459 49.0063 15.8688 48.7163 15.5082 48.2088C15.1475 47.7014 15.0032 46.8314 15.0032 45.599V43.2067C15.0032 41.9743 15.1475 41.1043 15.5082 40.5969C15.8688 40.0894 16.4459 39.7994 17.1672 39.7994C17.8885 39.7994 18.4655 40.0894 18.8262 40.5969C19.1868 41.1043 19.4032 41.9743 19.4032 43.2067V45.599Z" fill="black"/>
<path d="M44.9376 38.277C44.4327 37.7696 43.9278 37.4071 43.2786 37.1896C42.6294 36.9721 41.9803 36.8271 41.1868 36.8271C40.3934 36.8271 39.7442 36.9721 39.095 37.1896C38.4458 37.4071 37.8688 37.7696 37.436 38.277C36.9311 38.7845 36.5704 39.437 36.2819 40.2344C35.9934 41.0318 35.8491 42.0468 35.8491 43.2067V45.599C35.8491 46.7589 35.9934 47.7014 36.2819 48.5713C36.5704 49.3687 36.9311 50.0212 37.436 50.5286C37.9409 51.0361 38.4458 51.3986 39.095 51.6161C39.7442 51.8335 40.3934 51.9785 41.1868 51.9785C41.9803 51.9785 42.6294 51.8335 43.2786 51.6161C43.9278 51.3986 44.5049 51.0361 44.9376 50.5286C45.4426 50.0212 45.8032 49.3687 46.0917 48.5713C46.3803 47.7738 46.5245 46.7589 46.5245 45.599V43.2067C46.5245 42.0468 46.3803 41.1043 46.0917 40.2344C45.8032 39.5095 45.4426 38.7845 44.9376 38.277ZM43.4229 45.599C43.4229 46.8314 43.2065 47.7014 42.8458 48.2088C42.4852 48.7163 41.9081 49.0063 41.1868 49.0063C40.4655 49.0063 39.8885 48.7163 39.5278 48.2088C39.1672 47.7014 39.0229 46.8314 39.0229 45.599V43.2067C39.0229 41.9743 39.1672 41.1043 39.5278 40.5969C39.8885 40.0894 40.4655 39.7994 41.1868 39.7994C41.9081 39.7994 42.4852 40.0894 42.8458 40.5969C43.2065 41.1043 43.4229 41.9743 43.4229 43.2067V45.599Z" fill="black"/>
<path d="M63.6196 49.3688C63.6918 48.8613 63.7639 48.3538 63.7639 47.7739V37.4071C63.7639 37.3346 63.7639 37.1897 63.6918 37.1172C63.6196 37.0447 63.5475 36.9722 63.4754 36.9722H61.1672C61.095 36.9722 61.0229 37.0447 60.9508 37.1172C60.8787 37.1897 60.8787 37.2621 60.8787 37.4071V47.8464C60.8787 47.9914 60.8787 48.1363 60.8787 48.2813C60.8787 48.4263 60.8787 48.4988 60.8065 48.6438C60.7344 48.7163 60.6623 48.7888 60.5901 48.8613C60.518 48.9338 60.3016 48.9338 60.1573 48.9338H57.9934V37.4071C57.9934 37.3346 57.9934 37.1897 57.9213 37.1172C57.8491 37.0447 57.777 36.9722 57.7049 36.9722H55.3967C55.3246 36.9722 55.2524 37.0447 55.1803 37.1172C55.1082 37.1897 55.1082 37.2621 55.1082 37.4071V48.8613H52.9442C52.7278 48.8613 52.5836 48.8613 52.5114 48.7888C52.4393 48.7163 52.3672 48.6438 52.295 48.5713C52.2229 48.4988 52.2229 48.3538 52.2229 48.2088C52.2229 48.0639 52.2229 47.9189 52.2229 47.7739V37.4071C52.2229 37.3346 52.2229 37.1897 52.1508 37.1172C52.0787 37.0447 52.0065 36.9722 51.9344 36.9722H49.0491C48.977 36.9722 48.9049 37.0447 48.8328 37.1172C48.7606 37.1897 48.7606 37.2621 48.7606 37.4071V47.8464C48.7606 48.4263 48.8328 48.9338 48.9049 49.4412C48.977 49.9487 49.1934 50.3837 49.4819 50.6737C49.7705 51.0361 50.1311 51.3261 50.636 51.5436C51.1409 51.7611 51.718 51.8336 52.5114 51.8336H60.1573C60.9508 51.8336 61.5278 51.7611 62.0328 51.5436C62.5377 51.3261 62.8983 51.0361 63.1868 50.6737C63.3311 50.3112 63.5475 49.8762 63.6196 49.3688Z" fill="black"/>
<path d="M76.0983 37.0447H74.295C74.1508 37.0447 74.0065 37.1172 73.8622 37.1897C73.7901 37.2621 73.6459 37.4796 73.5737 37.6246L69.318 45.8165C69.2459 45.889 69.2459 45.9615 69.1737 45.9615C69.1016 45.9615 69.1016 45.889 69.1016 45.8165V37.4071C69.1016 37.3346 69.0295 37.1897 69.0295 37.1172C68.9573 37.0447 68.8852 36.9722 68.8131 36.9722H66.7213C66.6491 36.9722 66.577 37.0447 66.5049 37.1172C66.4327 37.1897 66.4327 37.2621 66.4327 37.4071V51.0361C66.4327 51.2536 66.5049 51.3986 66.6491 51.5436C66.7934 51.6886 66.9377 51.7611 67.1541 51.7611H68.8852C69.1016 51.7611 69.2459 51.7611 69.3901 51.6161C69.5344 51.5436 69.6786 51.3986 69.8229 51.1086L73.8622 43.2792C73.9344 43.2067 74.0065 43.1342 74.0065 43.1342C74.0786 43.1342 74.0786 43.2067 74.0786 43.2792V51.3261C74.0786 51.3986 74.0786 51.5436 74.1508 51.6161C74.2229 51.6886 74.295 51.7611 74.3672 51.7611H76.459C76.5311 51.7611 76.6032 51.6886 76.6754 51.6161C76.7475 51.5436 76.7475 51.4711 76.7475 51.3261V37.7696C76.7475 37.5521 76.6754 37.4071 76.5311 37.2621C76.459 37.1172 76.3147 37.0447 76.0983 37.0447Z" fill="black"/>
<path d="M83.7442 37.0444C80.4983 37.0444 79.2 38.7843 79.2 44.3664C79.2 50.021 80.354 51.7609 83.8885 51.7609C85.0426 51.7609 86.2688 51.6159 87.3508 51.3259C87.4229 51.3259 87.495 51.1084 87.4229 50.9634L87.0622 48.6436C87.0622 48.4986 86.918 48.4261 86.8458 48.4986C86.1245 48.8611 84.8983 49.0061 83.8885 49.0061C82.1573 49.0061 81.9409 48.3536 81.9409 45.0913H87.6393C87.7114 45.0913 87.9278 44.9464 87.9278 44.7289C87.9999 38.4943 86.9901 37.0444 83.7442 37.0444ZM82.0852 42.699C82.1573 40.0892 82.3016 39.6542 83.7442 39.6542C85.1868 39.6542 85.3311 40.1617 85.3311 42.699H82.0852Z" fill="black"/>
<path d="M24.3082 54.5883H26.9049C26.977 54.5883 26.977 54.5883 27.0492 54.5158C27.1213 54.4434 27.1213 54.3709 27.1213 54.2259V52.776V51.6886H27.3377C27.6262 51.7611 27.9147 51.7611 28.2754 51.8335C28.5639 51.8335 28.8525 51.906 29.0688 51.906C30.8 51.906 32.0984 51.3261 32.9639 50.1662C33.8295 49.0063 34.2623 47.4114 34.2623 45.3815V43.3517C34.2623 41.2493 33.8295 39.6544 32.8918 38.4945C32.0262 37.4071 30.7279 36.8271 29.0688 36.8271C28.2754 36.8271 27.4098 36.8996 26.6885 37.0446C25.8951 37.1896 25.1738 37.3346 24.5967 37.5521C24.2361 37.6246 24.1639 37.7696 24.1639 37.7696C24.0918 37.8421 24.0918 37.9871 24.0918 38.1321V51.5436V52.8485V54.2984C24.0918 54.3709 24.0918 54.4434 24.1639 54.5158C24.1639 54.5883 24.2361 54.5883 24.3082 54.5883ZM27.1213 40.1619H27.2656C27.482 40.0894 27.7705 40.0894 28.059 40.0894C28.3475 40.0894 28.7082 40.0169 29.0688 40.0169C29.5016 40.0169 29.8623 40.0894 30.0787 40.3069C30.3672 40.4519 30.5836 40.7419 30.7279 41.0318C30.8721 41.3218 31.0164 41.6843 31.0164 42.0468C31.0885 42.4092 31.0885 42.8442 31.0885 43.3517V45.3815C31.0885 45.8165 31.0885 46.2515 31.0164 46.6864C30.9443 47.1214 30.8721 47.4839 30.7279 47.7738C30.5836 48.0638 30.3672 48.3538 30.0787 48.4988C29.7902 48.7163 29.4295 48.7888 29.0688 48.7888C28.7803 48.7888 28.4918 48.7888 28.2033 48.7163C27.8426 48.7163 27.5541 48.6438 27.3377 48.6438H27.1934V40.1619H27.1213Z" fill="black"/>
</g>
<defs>
<clipPath id="clip0_501_45">
<rect width="88" height="68" fill="white"/>
</clipPath>
</defs>
</svg>
