<svg width="15" height="15" viewBox="0 0 15 15" fill="none" xmlns="http://www.w3.org/2000/svg">
<path d="M3.09819 7.1875C3.81434 7.18693 4.50814 6.93809 5.06139 6.48335C5.61465 6.02862 5.99313 5.39614 6.13236 4.69366C6.27159 3.99117 6.16296 3.26214 5.82497 2.63077C5.48699 1.99939 4.94055 1.50473 4.27876 1.23105C3.61696 0.957369 2.88075 0.921604 2.19555 1.12985C1.51034 1.33809 0.91853 1.77745 0.520933 2.3731C0.123336 2.96874 -0.0554491 3.6838 0.0150349 4.39648C0.0855189 5.10915 0.400912 5.77534 0.907484 6.28156C1.19499 6.56938 1.53653 6.79758 1.91247 6.95305C2.28841 7.10851 2.69136 7.18819 3.09819 7.1875ZM2.23328 3.22592C2.43338 3.02584 2.69667 2.90132 2.97828 2.8736C3.25989 2.84587 3.5424 2.91664 3.77768 3.07386C4.01296 3.23108 4.18645 3.46501 4.26858 3.7358C4.35072 4.00659 4.33642 4.29748 4.22813 4.55891C4.11984 4.82034 3.92425 5.03614 3.67469 5.16952C3.42513 5.30291 3.13703 5.34564 2.8595 5.29044C2.58197 5.23523 2.33216 5.0855 2.15264 4.86676C1.97313 4.64802 1.87501 4.3738 1.87501 4.09083C1.87457 3.93013 1.90601 3.77095 1.9675 3.62248C2.029 3.47402 2.11934 3.33923 2.23328 3.22592ZM11.9019 7.81071C11.1851 7.8107 10.4905 8.05922 9.93637 8.51394C9.38228 8.96865 9.003 9.60143 8.86315 10.3044C8.7233 11.0075 8.83154 11.7372 9.16943 12.3694C9.50731 13.0015 10.0539 13.497 10.7162 13.7713C11.3784 14.0456 12.1152 14.0818 12.8012 13.8737C13.4871 13.6656 14.0796 13.2262 14.4779 12.6302C14.8761 12.0342 15.0554 11.3186 14.9851 10.6052C14.9148 9.8919 14.5994 9.22499 14.0926 8.71815C13.8056 8.42955 13.4642 8.20075 13.0881 8.04498C12.7121 7.88922 12.3089 7.80959 11.9019 7.81071ZM12.7667 11.7738C12.5371 12.0017 12.2264 12.1294 11.9028 12.1288C11.5792 12.1282 11.269 11.9993 11.0402 11.7705C10.8114 11.5417 10.6826 11.2315 10.682 10.9079C10.6814 10.5843 10.809 10.2737 11.037 10.044C11.1504 9.9297 11.2853 9.83894 11.4338 9.77691C11.5824 9.71488 11.7418 9.68279 11.9028 9.68249C12.0638 9.68219 12.2233 9.71369 12.3721 9.77517C12.5209 9.83664 12.6561 9.9269 12.77 10.0408C12.8838 10.1546 12.9741 10.2898 13.0356 10.4386C13.097 10.5875 13.1285 10.7469 13.1282 10.908C13.1279 11.069 13.0958 11.2283 13.0338 11.3769C12.9718 11.5255 12.881 11.6604 12.7667 11.7738L12.7667 11.7738ZM13.7326 1.26725C13.8197 1.35431 13.8887 1.45766 13.9358 1.5714C13.9829 1.68514 14.0072 1.80705 14.0072 1.93017C14.0072 2.05328 13.9829 2.17519 13.9358 2.28893C13.8887 2.40268 13.8197 2.50603 13.7326 2.59308L2.59328 13.7324C2.41724 13.9071 2.17914 14.0049 1.93112 14.0045C1.6831 14.004 1.44538 13.9052 1.27001 13.7299C1.09464 13.5545 0.995906 13.3168 0.995433 13.0688C0.994959 12.8207 1.09278 12.5826 1.26748 12.4066L12.4068 1.26725C12.5826 1.09144 12.8211 0.992676 13.0697 0.992676C13.3183 0.992676 13.5568 1.09144 13.7326 1.26725Z" fill="white"/>
</svg>
