<svg width="15" height="19" viewBox="0 0 15 19" fill="none" xmlns="http://www.w3.org/2000/svg">
<path d="M14.225 18.0998H14.125H12.6806H12.5806V17.9998V14.4278C12.58 13.8996 12.3658 13.3928 11.9844 13.0187C11.6029 12.6445 11.0853 12.4337 10.5449 12.4332C10.5449 12.4332 10.5449 12.4332 10.5448 12.4332M14.225 18.0998L10.5449 12.3332L10.5448 12.4332M14.225 18.0998V17.9998V14.4277V14.4276C14.2238 13.4696 13.8353 12.5516 13.1452 11.8748C12.4552 11.198 11.5201 10.8177 10.5451 10.8165H10.5449L4.70506 10.8165L4.70494 10.8165C3.72994 10.8177 2.79483 11.198 2.10482 11.8748C1.41475 12.5516 1.02618 13.4696 1.025 14.4276V14.4277V17.9998V18.0998H1.125H2.56944H2.66944V17.9998L2.66944 14.4278L14.225 18.0998ZM10.5448 12.4332H4.70515M10.5448 12.4332H4.70515M4.70515 12.4332L4.70506 12.4332L4.70515 12.4332Z" fill="white" stroke="white" stroke-width="0.2"/>
<path d="M7.62469 9.6H7.62479C8.79957 9.59885 9.92629 9.14065 10.7576 8.32536C11.5889 7.51 12.0568 6.40405 12.058 5.2501V5.25C12.058 4.38922 11.7978 3.54792 11.3104 2.83253C10.823 2.11715 10.1305 1.55987 9.32062 1.23087C8.51077 0.901869 7.61975 0.815817 6.76015 0.983515C5.90054 1.15121 5.11067 1.5652 4.49054 2.1734C3.87038 2.78163 3.44782 3.5568 3.27661 4.40099C3.1054 5.2452 3.19329 6.12021 3.52909 6.91531C3.86488 7.71039 4.43338 8.38964 5.1624 8.86739C5.89141 9.34513 6.74828 9.6 7.62469 9.6ZM6.07452 2.97781C6.5332 2.67722 7.07267 2.51667 7.62469 2.51667C8.36497 2.51667 9.07454 2.80511 9.59742 3.31793C10.1202 3.83068 10.4136 4.52571 10.4136 5.25C10.4136 5.79017 10.2503 6.31837 9.94407 6.76781C9.63785 7.21729 9.20241 7.5679 8.69258 7.77501C8.18274 7.98214 7.62161 8.03636 7.08024 7.93074C6.53888 7.82513 6.04187 7.56449 5.65196 7.18208C5.26206 6.79968 4.99677 6.31272 4.88931 5.78288C4.78186 5.25305 4.83699 4.70385 5.04782 4.20464C5.25867 3.7054 5.61585 3.27839 6.07452 2.97781Z" fill="white" stroke="white" stroke-width="0.2"/>
</svg>
