<svg width="24" height="24" viewBox="0 0 24 24" fill="none" xmlns="http://www.w3.org/2000/svg">
<path d="M18.719 14.053C18.3038 13.7187 17.7927 13.5259 17.2602 13.5027C16.7277 13.4795 16.2017 13.6271 15.759 13.924L14.25 14.93C12.9869 14.641 11.8308 14.0017 10.9146 13.0854C9.9983 12.1692 9.35899 11.0131 9.07003 9.74995L10.076 8.24095C10.3729 7.79826 10.5205 7.27228 10.4973 6.73979C10.474 6.20729 10.2813 5.69614 9.94703 5.28095L8.71803 3.74395C8.47007 3.43391 8.15246 3.18673 7.79102 3.02249C7.42958 2.85825 7.03449 2.78159 6.63786 2.79874C6.24122 2.81589 5.85423 2.92636 5.50831 3.12118C5.16239 3.31599 4.86731 3.58966 4.64703 3.91995L3.66103 5.39995C3.1975 6.09391 2.90977 6.89023 2.82266 7.7202C2.73555 8.55017 2.85168 9.38888 3.16103 10.164C4.12898 12.5705 5.57365 14.7564 7.40817 16.5902C9.24268 18.4241 11.4291 19.8679 13.836 20.835C14.6111 21.1443 15.4498 21.2604 16.2798 21.1733C17.1098 21.0862 17.9061 20.7985 18.6 20.335L20.08 19.349C20.4103 19.1287 20.684 18.8336 20.8788 18.4877C21.0736 18.1418 21.1841 17.7548 21.2012 17.3581C21.2184 16.9615 21.1417 16.5664 20.9775 16.205C20.8133 15.8435 20.5661 15.5259 20.256 15.278L18.719 14.053ZM19.525 18.521L18.045 19.507C17.4859 19.88 16.8445 20.1114 16.176 20.1811C15.5075 20.2508 14.832 20.1567 14.208 19.907C11.9273 18.9897 9.85562 17.6208 8.11739 15.8826C6.37916 14.1444 5.01028 12.0726 4.09303 9.79195C3.84339 9.16793 3.74936 8.49253 3.81905 7.82404C3.88873 7.15556 4.12005 6.51407 4.49303 5.95495L5.47903 4.47495C5.61076 4.27478 5.78836 4.10893 5.99707 3.99118C6.20578 3.87343 6.43957 3.80719 6.67903 3.79795H6.74803C6.97638 3.79722 7.2019 3.84843 7.40754 3.9477C7.61319 4.04697 7.79356 4.1917 7.93503 4.37095L9.16603 5.90595C9.36781 6.15544 9.48427 6.46305 9.49831 6.78361C9.51235 7.10417 9.42323 7.42079 9.24403 7.68695L8.12103 9.37095C8.0844 9.42561 8.05893 9.48696 8.04606 9.55148C8.03319 9.616 8.03318 9.68243 8.04603 9.74695C8.34998 11.2798 9.1021 12.6879 10.2071 13.7929C11.3121 14.8979 12.7202 15.65 14.253 15.954C14.3176 15.9668 14.384 15.9668 14.4485 15.9539C14.513 15.9411 14.5744 15.9156 14.629 15.879L16.313 14.756C16.5792 14.5768 16.8958 14.4876 17.2164 14.5017C17.5369 14.5157 17.8445 14.6322 18.094 14.834L19.631 16.063C19.8182 16.2127 19.9675 16.4044 20.0667 16.6226C20.1658 16.8408 20.2121 17.0794 20.2018 17.3189C20.1915 17.5583 20.1248 17.792 20.0072 18.0009C19.8896 18.2097 19.7244 18.3879 19.525 18.521Z" fill="#ED145B"/>
<path d="M12.7 7.2251C13.7806 7.22563 14.8168 7.65513 15.5809 8.41922C16.345 9.18332 16.7745 10.2195 16.775 11.3001C16.775 11.4327 16.8277 11.5599 16.9215 11.6537C17.0152 11.7474 17.1424 11.8001 17.275 11.8001C17.4076 11.8001 17.5348 11.7474 17.6286 11.6537C17.7223 11.5599 17.775 11.4327 17.775 11.3001C17.7745 9.95429 17.2396 8.66375 16.288 7.71212C15.3364 6.76048 14.0458 6.22563 12.7 6.2251C12.5674 6.2251 12.4402 6.27778 12.3465 6.37154C12.2527 6.46531 12.2 6.59249 12.2 6.7251C12.2 6.85771 12.2527 6.98488 12.3465 7.07865C12.4402 7.17242 12.5674 7.2251 12.7 7.2251Z" fill="#ED145B"/>
<path d="M12.7 3.7998C14.6885 3.80192 16.5949 4.59278 18.001 5.99884C19.407 7.40491 20.1979 9.31133 20.2 11.2998C20.2 11.4324 20.2527 11.5596 20.3465 11.6534C20.4402 11.7471 20.5674 11.7998 20.7 11.7998C20.8326 11.7998 20.9598 11.7471 21.0536 11.6534C21.1473 11.5596 21.2 11.4324 21.2 11.2998C21.1974 9.04628 20.301 6.88581 18.7075 5.29232C17.114 3.69883 14.9535 2.80245 12.7 2.7998C12.5674 2.7998 12.4402 2.85248 12.3465 2.94625C12.2527 3.04002 12.2 3.1672 12.2 3.2998C12.2 3.43241 12.2527 3.55959 12.3465 3.65336C12.4402 3.74713 12.5674 3.7998 12.7 3.7998Z" fill="#ED145B"/>
</svg>
