<svg width="29" height="30" viewBox="0 0 29 30" fill="none" xmlns="http://www.w3.org/2000/svg">
<g clip-path="url(#clip0_1_1334)">
<path d="M14.5 15.0005V10.7358C14.5 9.10449 13.7209 7.58278 12.3062 6.45104C9.49534 4.20235 5.00586 4.20138 2.19376 6.45104C0.779077 7.58278 0 9.10449 0 10.7358V17.5594C0 21.7922 3.44366 25.2358 7.67647 25.2358H29V15.0005H14.5ZM7.25 6.47112C10.3071 6.47112 12.7941 8.38426 12.7941 10.7358V15.0005H7.25C4.19295 15.0005 1.70588 13.0874 1.70588 10.7358C1.70588 8.38426 4.19295 6.47112 7.25 6.47112ZM1.70588 17.5594V14.5904C3.05143 15.8983 4.91283 16.6053 6.82347 16.6959V16.7064H23.0294V23.5299H20.4705V20.9711H18.7646V23.5299H16.2058V20.1181H14.4999V23.5299H11.9411V20.9711H10.2352V23.5299H7.67641C4.38429 23.5299 1.70588 20.8516 1.70588 17.5594ZM27.2941 23.5299H24.7353V16.7064H27.2941V23.5299Z" fill="white"/>
<path d="M4.60671 12.5631C6.09561 13.538 8.40281 13.539 9.89324 12.5631C10.6526 12.0658 11.0882 11.3998 11.0882 10.7357C11.0882 10.0716 10.6526 9.40557 9.89324 8.9083C8.40435 7.93339 6.09714 7.93243 4.60671 8.9083C3.84731 9.40557 3.41174 10.0716 3.41174 10.7357C3.41174 11.3998 3.84731 12.0658 4.60671 12.5631ZM7.24998 9.88276C8.51006 9.88276 9.25553 10.4715 9.3734 10.7357C9.25553 10.9999 8.51006 11.5886 7.24998 11.5886C5.9899 11.5886 5.24437 10.9999 5.12655 10.7357C5.24437 10.4715 5.9899 9.88276 7.24998 9.88276Z" fill="white"/>
</g>
<defs>
<clipPath id="clip0_1_1334">
<rect width="29" height="29" fill="white" transform="translate(0 0.5)"/>
</clipPath>
</defs>
</svg>
